<svg id="Layer_1" data-name="Layer 1" xmlns="http://www.w3.org/2000/svg" xmlns:xlink="http://www.w3.org/1999/xlink" viewBox="0 0 1046.89 448.06"><defs><style>.cls-1{fill:url(#New_Gradient_Swatch_2);}.cls-2{fill:url(#linear-gradient);}</style><linearGradient id="New_Gradient_Swatch_2" x1="236.35" y1="449.28" x2="523.9" y2="449.28" gradientUnits="userSpaceOnUse"><stop offset="0.35"/><stop offset="0.44" stop-color="#060606"/><stop offset="0.57" stop-color="#191919"/><stop offset="0.72" stop-color="#373737"/><stop offset="0.88" stop-color="#606060"/><stop offset="1" stop-color="#828282"/></linearGradient><linearGradient id="linear-gradient" x1="330.3" y1="546.02" x2="330.3" y2="159.97" gradientUnits="userSpaceOnUse"><stop offset="0.56" stop-color="#e2522b"/><stop offset="0.62" stop-color="#e25e34"/><stop offset="0.74" stop-color="#e27d4c"/><stop offset="0.89" stop-color="#e2b073"/><stop offset="0.95" stop-color="#e2c382"/></linearGradient></defs><path class="cls-1" d="M523.9,491.87A47,47,0,0,1,501,532.21L398.18,593.59a103.21,103.21,0,0,1-103.58,1l-.25-.14-52.82-29.66a9.88,9.88,0,0,1-5-8.61l0-17.73V524.59l0-24.2a2.8,2.8,0,0,1,4.17-2.44L294.3,528.1l.2.11a103.22,103.22,0,0,0,103.4-1.68l62.57-37.45a11.5,11.5,0,0,0,5.58-9.85h0a6,6,0,0,0-9.11-5.16l-59.36,35.7a103.22,103.22,0,0,1-103.21,2.46l-.08,0-33.93-19.05a47,47,0,0,1-24-40.89V396.73l0-25.84v-15a14.93,14.93,0,0,1,22.24-13L294.45,363a103.19,103.19,0,0,0,103.29-2l116-69.49a6.6,6.6,0,0,1,10,5.66v32l0,18.4a9.3,9.3,0,0,1-4.53,8L398,428a103.22,103.22,0,0,1-103.49,1.38c-6.16.85-5.89,14.31-.29,16.43h0a103.2,103.2,0,0,0,103.06-3.14l100.82-60.56a17,17,0,0,1,25.7,14.53l0,37.39,0,17.13v21.27l0,19.42Z" transform="translate(-157.84 -159.97)"/><path class="cls-2" d="M492,247.12,351.32,161.31a9.21,9.21,0,0,0-9.35-.13L190.68,247.74a65.25,65.25,0,0,0-32.84,56.67L158,507.64a16.88,16.88,0,0,0,8.61,14.69l39.51,22.19a11.57,11.57,0,0,0,17.24-10.12l-.56-202.76a16.78,16.78,0,0,1,25-14.69l45.63,25.54A105.68,105.68,0,0,0,399.13,341l92.65-55.33A22.51,22.51,0,0,0,492,247.12ZM328,295.58l-54.8-29,73.5-41.22,47.06,29.85a13.09,13.09,0,0,1-.28,22.28L364.84,294.6A37.51,37.51,0,0,1,328,295.58Z" transform="translate(-157.84 -159.97)"/><path d="M606.17,260.12A182,182,0,0,1,636,258.06c13.56,0,23.36,2.64,29.91,7.9,6.26,4.85,10.36,13,10.36,22.6s-3.1,17.74-8.92,23.14c-7.55,7.09-18.81,10.37-31.74,10.37a50.72,50.72,0,0,1-7.54-.51v35h-21.9Zm21.9,44.33a33.67,33.67,0,0,0,7.34.58c11.73,0,19-5.94,19-15.84,0-9-6.16-14.35-17.3-14.35a44,44,0,0,0-9,.73Z" transform="translate(-157.84 -159.97)"/><path d="M712.37,258.83V315c0,16.89,6.49,25.5,17.71,25.5,11.61,0,18-8.18,18-25.5v-56.2h22.09v54.84c0,30.15-15.24,44.48-40.82,44.48-24.67,0-39.07-13.68-39.07-44.74V258.83Z" transform="translate(-157.84 -159.97)"/><path d="M790,333.75a54.58,54.58,0,0,0,24.49,6.14c10.15,0,15.53-4.22,15.53-10.65,0-6-4.66-9.54-16.36-13.66-16.3-5.78-27-14.67-27-28.94,0-16.67,14-29.34,37-29.34,11.14,0,19.19,2.22,25,4.92l-4.89,17.72a46.86,46.86,0,0,0-20.4-4.64c-9.62,0-14.21,4.46-14.21,9.45,0,6.21,5.41,9,18.09,13.74,17.3,6.47,25.31,15.45,25.31,29.27,0,16.32-12.49,30.32-39.4,30.32-11.07,0-22.15-3-27.6-6.07Z" transform="translate(-157.84 -159.97)"/><path d="M886.47,277.38H860.1V258.83h75.22v18.55H908.57v79.18h-22.1Z" transform="translate(-157.84 -159.97)"/><path d="M959.28,331.46l-6.9,25.1H929.53l29.83-97.73h28.92l30.42,97.73H994.89l-7.51-25.1ZM984.1,315,978,294.23c-1.68-5.78-3.42-13.1-4.92-18.82h-.3c-1.44,5.75-2.91,13.17-4.48,18.85L962.48,315Z" transform="translate(-157.84 -159.97)"/><path d="M1031.74,258.83h21.9V302h.36c2.15-3.7,4.48-7.24,6.71-10.66l22.13-32.54H1110l-32.34,41.59,34,56.14H1086l-24-42.14-8.3,10.22v31.92h-21.9Z" transform="translate(-157.84 -159.97)"/><path d="M1145.31,331.46l-6.9,25.1h-22.85l29.83-97.73h28.92l30.42,97.73h-23.81l-7.51-25.1ZM1170.13,315l-6.08-20.77c-1.68-5.78-3.42-13.1-4.91-18.82h-.31c-1.43,5.75-2.91,13.17-4.47,18.85L1148.51,315Z" transform="translate(-157.84 -159.97)"/><path d="M606.89,473.75a54.66,54.66,0,0,0,24.5,6.14c10.15,0,15.53-4.22,15.53-10.65,0-6-4.66-9.54-16.36-13.66-16.31-5.78-27-14.67-27-28.94,0-16.67,14-29.34,37-29.34,11.14,0,19.19,2.22,24.95,4.92l-4.88,17.72a46.9,46.9,0,0,0-20.4-4.64c-9.62,0-14.22,4.46-14.22,9.45,0,6.21,5.42,9,18.1,13.74,17.3,6.47,25.31,15.45,25.31,29.27,0,16.32-12.49,30.32-39.4,30.32-11.07,0-22.16-3-27.6-6.08Z" transform="translate(-157.84 -159.97)"/><path d="M707,496.56V456.49l-30.87-57.66h25.31l10,23.51c3,7,5.14,12.25,7.54,18.72h.29c2.18-6.09,4.53-11.82,7.36-18.74l9.85-23.49h24.91l-32.24,56.92v40.81Z" transform="translate(-157.84 -159.97)"/><path d="M781.22,471.46l-6.9,25.1H751.47l29.83-97.73h28.92l30.42,97.73h-23.8l-7.52-25.1ZM806.05,455,800,434.23c-1.68-5.78-3.41-13.1-4.91-18.82h-.31c-1.43,5.75-2.91,13.17-4.47,18.85L784.42,455Z" transform="translate(-157.84 -159.97)"/><path d="M853.69,400.17c5.81-1.13,17.45-2.11,28.51-2.11,13.47,0,21.76,1.33,28.91,5.49a21.23,21.23,0,0,1,11.65,19.26c0,8.6-5,16.71-16,20.79V444c11.16,2.93,19.45,11.44,19.45,23.95A25.9,25.9,0,0,1,916,488.68c-7.17,5.76-19,8.9-38.43,8.9a169.5,169.5,0,0,1-23.88-1.45Zm21.89,37.42h7.17c11.71,0,17.81-4.86,17.81-12.13s-5.63-11.33-15.61-11.33a46.56,46.56,0,0,0-9.37.68Zm0,43.24a54.16,54.16,0,0,0,8.48.4c10,0,18.86-3.88,18.86-14.17,0-9.79-8.77-13.7-19.79-13.7h-7.55Z" transform="translate(-157.84 -159.97)"/><path d="M963.34,471.46l-6.9,25.1H933.59l29.83-97.73h28.92l30.42,97.73H999l-7.51-25.1ZM988.16,455l-6.08-20.77c-1.68-5.78-3.42-13.1-4.91-18.82h-.31c-1.44,5.75-2.91,13.17-4.48,18.85L966.54,455Z" transform="translate(-157.84 -159.97)"/><path d="M1035.8,400.17c5.81-1.13,17.45-2.11,28.52-2.11,13.47,0,21.76,1.33,28.9,5.49a21.21,21.21,0,0,1,11.65,19.26c0,8.6-5,16.71-16,20.79V444c11.16,2.93,19.46,11.44,19.46,23.95a25.88,25.88,0,0,1-10.17,20.76c-7.16,5.76-19,8.9-38.42,8.9a169.67,169.67,0,0,1-23.89-1.45Zm21.9,37.42h7.16c11.71,0,17.82-4.86,17.82-12.13s-5.63-11.33-15.61-11.33a46.56,46.56,0,0,0-9.37.68Zm0,43.24a54,54,0,0,0,8.47.4c10,0,18.86-3.88,18.86-14.17,0-9.79-8.76-13.7-19.78-13.7h-7.55Z" transform="translate(-157.84 -159.97)"/></svg>