<svg width="135" height="122" viewBox="0 0 135 122" fill="none" xmlns="http://www.w3.org/2000/svg">
<g clip-path="url(#clip0_141_2)">
<path fill-rule="evenodd" clip-rule="evenodd" d="M38.6488 82.4416C41.327 83.8598 44.3806 84.4693 47.418 84.1916C50.4556 83.914 53.3382 82.762 55.6964 80.8835C58.0546 79.0048 59.7806 76.4853 60.6528 73.6484C61.5251 70.8113 61.5039 67.786 60.592 64.9607C59.4362 61.358 59.0245 57.5695 59.3805 53.8122C59.7365 50.0548 60.853 46.4026 62.6665 43.065C64.4799 39.7273 66.9543 36.7698 69.9479 34.3618C72.9415 31.9539 76.3953 30.1433 80.1115 29.0333C82.9937 28.1572 85.5442 26.4734 87.4425 24.1939C89.3408 21.9144 90.5019 19.141 90.7795 16.2225C91.0574 13.3041 90.4394 10.3711 89.0035 7.79286C87.5675 5.21445 85.3777 3.1058 82.7098 1.73236C80.0417 0.358921 77.0148 -0.218181 74.0098 0.0740093C71.0046 0.366018 68.1555 1.51404 65.8212 3.3738C63.4868 5.23338 61.7715 7.72154 60.8909 10.525C60.0104 13.3285 60.0041 16.3221 60.8727 19.129C63.1529 26.3755 62.3818 34.2037 58.7284 40.8999C55.0749 47.5961 48.8367 52.615 41.3789 54.8583C38.4349 55.6869 35.8148 57.3538 33.858 59.6436C31.9012 61.9335 30.6977 64.7406 30.4036 67.7014C30.1096 70.6624 30.7382 73.6409 32.2083 76.2512C33.6784 78.8616 35.922 80.9835 38.6488 82.3424V82.4416ZM132.776 98.932C131.694 97.2602 130.279 95.8144 128.614 94.6793C126.949 93.5442 125.068 92.7425 123.08 92.321C115.475 90.6046 108.879 86.0367 104.734 79.6156C100.589 73.1943 99.2313 65.442 100.958 58.0526C101.622 55.1966 101.401 52.2139 100.324 49.479C99.2469 46.7442 97.361 44.3792 94.9032 42.6811C92.4453 40.9831 89.5252 40.0278 86.5095 39.9348C83.494 39.842 80.5175 40.6158 77.9536 42.1592C75.3898 43.7027 73.3531 45.9467 72.0992 48.6097C70.8455 51.2729 70.4304 54.236 70.9065 57.1271C71.3823 60.0183 72.7281 62.7086 74.7745 64.86C76.8207 67.0114 79.4766 68.5282 82.4083 69.2196C86.2011 70.0497 89.7877 71.5982 92.9626 73.7762C96.1374 75.9539 98.8382 78.7187 100.91 81.9113C102.982 85.1041 104.384 88.6622 105.035 92.3818C105.688 96.1013 105.577 99.9092 104.709 103.587C104.195 105.958 104.287 108.415 104.976 110.744C105.665 113.072 106.93 115.202 108.662 116.947C110.394 118.693 112.539 120.001 114.91 120.757C117.282 121.514 119.809 121.696 122.27 121.288C124.731 120.879 127.051 119.893 129.03 118.415C131.008 116.937 132.584 115.013 133.62 112.808C134.656 110.604 135.12 108.187 134.973 105.769C134.826 103.35 134.072 101.003 132.776 98.932ZM72.1598 81.376C74.0088 80.547 76.0094 80.0841 78.0449 80.0148C80.5454 79.9531 83.0234 80.4871 85.2622 81.5696C87.5009 82.6523 89.432 84.2506 90.8869 86.225C92.342 88.1996 93.2762 90.4898 93.6081 92.8956C93.9397 95.3015 93.6591 97.7495 92.7905 100.026C91.9216 102.302 90.4915 104.337 88.6249 105.953C86.7583 107.569 84.5124 108.716 82.0832 109.294C79.6539 109.873 77.1158 109.865 74.6903 109.272C72.265 108.678 70.0264 107.517 68.1705 105.89C65.3198 103.321 61.9749 101.324 58.3273 100.012C54.6798 98.6997 50.8013 98.0991 46.9142 98.244C43.0271 98.3888 39.2076 99.2766 35.6745 100.856C32.1415 102.436 28.9644 104.676 26.325 107.449C24.59 109.194 22.4412 110.5 20.0662 111.254C17.6913 112.007 15.1623 112.185 12.7002 111.772C10.2382 111.358 7.91788 110.367 5.9416 108.883C3.96532 107.399 2.39345 105.469 1.36284 103.26C0.332235 101.051 -0.125417 98.6313 0.029446 96.2112C0.184496 93.7912 0.947372 91.4448 2.25189 89.3767C3.55623 87.3088 5.36227 85.5821 7.51272 84.3473C9.66298 83.1124 12.0922 82.4071 14.588 82.2928C16.6157 82.2159 18.6388 82.5308 20.5397 83.2194C22.4408 83.9081 24.1818 84.9566 25.6616 86.304C31.3889 91.4473 38.9819 94.1811 46.7803 93.9073C54.5786 93.6335 61.948 90.3746 67.2773 84.8432C68.651 83.3837 70.3108 82.2051 72.1598 81.376Z" fill="white"/>
</g>
<defs>
<clipPath id="clip0_141_2">
<rect width="135" height="122" fill="white"/>
</clipPath>
</defs>
</svg>
